<svg xmlns="http://www.w3.org/2000/svg" version="1.0" width="20px" height="20px" viewBox="0 0 512.000000 512.000000" preserveAspectRatio="xMidYMid meet">

<g transform="translate(0.000000,512.000000) scale(0.100000,-0.100000)" fill="#3B82F6" stroke="none">
<path d="M2350 4853 c-895 -96 -1651 -696 -1944 -1542 -97 -280 -133 -518 -123 -826 6 -191 21 -300 68 -482 99 -388 321 -773 612 -1063 129 -129 184 -175 304 -254 57 -37 105 -71 108 -76 3 -5 43 -29 88 -53 45 -24 116 -63 157 -85 70 -38 171 -76 330 -124 37 -12 115 -23 180 -28 63 -4 176 -15 250 -25 141 -18 290 -16 400 5 30 6 105 15 165 20 61 5 141 15 178 24 146 33 366 119 443 173 16 11 57 35 91 52 34 17 75 43 92 58 16 16 59 48 96 73 313 211 554 496 740 875 291 593 312 1205 64 1842 l-40 102 47 48 c71 73 137 181 169 274 40 119 47 288 16 409 -74 295 -296 517 -591 591 -120 31 -300 24 -415 -15 -98 -34 -185 -81 -247 -136 l-47 -41 -48 24 c-145 74 -397 145 -606 172 -108 14 -437 19 -537 8z m470 -218 c154 -18 290 -49 435 -97 169 -56 162 -50 130 -103 -37 -64 -61 -181 -71 -356 -25 -406 350 -789 771 -789 93 0 126 7 200 40 22 10 74 32 115 49 89 37 84 41 130 -88 79 -216 109 -392 117 -682 9 -311 -16 -498 -98 -738 -77 -225 -200 -441 -364 -638 -42 -51 -79 -93 -83 -93 -4 0 -20 27 -35 60 -55 120 -171 239 -297 304 -104 54 -168 68 -345 75 -164 7 -180 11 -243 58 -36 27 -76 98 -86 153 -6 33 -2 39 50 90 73 72 117 140 151 237 l28 78 3 355 c3 292 1 368 -12 430 -39 190 -179 354 -361 422 -56 22 -78 23 -348 26 -183 2 -308 -1 -341 -8 -191 -39 -350 -192 -413 -396 -16 -53 -18 -98 -18 -429 0 -409 2 -427 63 -555 25 -54 54 -94 104 -144 37 -37 68 -74 68 -80 0 -36 -35 -121 -62 -152 -59 -67 -93 -77 -283 -85 -190 -8 -243 -20 -355 -76 -106 -53 -232 -179 -286 -285 -21 -43 -42 -77 -46 -75 -4 1 -40 43 -79 92 -534 664 -636 1500 -275 2240 313 639 925 1071 1646 1160 141 17 349 17 490 0z"/>
</g>
</svg>