<svg width="17" height="16" viewBox="0 0 17 16" fill="none" xmlns="http://www.w3.org/2000/svg">
<path d="M16.0016 1.93934C16.1969 2.1346 16.1969 2.45118 16.0016 2.64645L14.9587 3.68933L12.9587 1.68933L14.0016 0.646447C14.1969 0.451184 14.5134 0.451185 14.7087 0.646447L16.0016 1.93934Z" fill="#3B82F6"/>
<path d="M14.2516 4.39644L12.2516 2.39644L5.43861 9.20943C5.38372 9.26432 5.34237 9.33123 5.31782 9.40487L4.51326 11.8186C4.44812 12.014 4.63405 12.1999 4.82949 12.1348L7.24317 11.3302C7.31681 11.3057 7.38372 11.2643 7.43861 11.2094L14.2516 4.39644Z" fill="#3B82F6"/>
<path fill-rule="evenodd" clip-rule="evenodd" d="M1.5 13.5C1.5 14.3284 2.17157 15 3 15H14C14.8284 15 15.5 14.3284 15.5 13.5V7.5C15.5 7.22386 15.2761 7 15 7C14.7239 7 14.5 7.22386 14.5 7.5V13.5C14.5 13.7761 14.2761 14 14 14H3C2.72386 14 2.5 13.7761 2.5 13.5V2.5C2.5 2.22386 2.72386 2 3 2H9.5C9.77614 2 10 1.77614 10 1.5C10 1.22386 9.77614 1 9.5 1H3C2.17157 1 1.5 1.67157 1.5 2.5V13.5Z" fill="#3B82F6"/>
</svg>
