<svg width="17" height="16" viewBox="0 0 17 16" fill="none" xmlns="http://www.w3.org/2000/svg">
    <path d="M11 8C11 9.38071 9.88071 10.5 8.5 10.5C7.11929 10.5 6 9.38071 6 8C6 6.61929 7.11929 5.5 8.5 5.5C9.88071 5.5 11 6.61929 11 8Z" fill="#3B82F6"/>
    <path d="M0.5 8C0.5 8 3.5 2.5 8.5 2.5C13.5 2.5 16.5 8 16.5 8C16.5 8 13.5 13.5 8.5 13.5C3.5 13.5 0.5 8 0.5 8ZM8.5 11.5C10.433 11.5 12 9.933 12 8C12 6.067 10.433 4.5 8.5 4.5C6.567 4.5 5 6.067 5 8C5 9.933 6.567 11.5 8.5 11.5Z" fill="#3B82F6"/>
</svg>
